<?xml version="1.0" encoding="UTF-8" standalone="no"?>
<!DOCTYPE svg PUBLIC "-//W3C//DTD SVG 1.1//EN"
 "http://www.w3.org/Graphics/SVG/1.1/DTD/svg11.dtd">
<!-- Generated by graphviz version 3.0.0 (20220226.1711)
 -->
<!-- Title: dependencies Pages: 1 -->
<svg width="338pt" height="174pt"
 viewBox="0.00 0.00 338.00 173.80" xmlns="http://www.w3.org/2000/svg" xmlns:xlink="http://www.w3.org/1999/xlink">
<g id="graph0" class="graph" transform="scale(1 1) rotate(0) translate(4 169.8)">
<title>dependencies</title>
<polygon fill="white" stroke="transparent" points="-4,4 -4,-169.8 334,-169.8 334,4 -4,4"/>
<text text-anchor="middle" x="165" y="-8.2" font-family="sans-serif" font-size="14.00">dependencies</text>
<g id="clust1" class="cluster">
<title>cluster_PlanesModule</title>
<polygon fill="none" stroke="black" stroke-dasharray="1,5" points="8,-32.8 8,-157.8 322,-157.8 322,-32.8 8,-32.8"/>
</g>
<g id="clust6" class="cluster">
<title>cluster_PlanesModule_providers</title>
<polygon fill="none" stroke="black" points="16,-40.8 16,-92.8 314,-92.8 314,-40.8 16,-40.8"/>
</g>
<!-- PlanesService -->
<g id="node1" class="node">
<title>PlanesService</title>
<ellipse fill="#fdb462" stroke="black" cx="241" cy="-66.8" rx="65.41" ry="18"/>
<text text-anchor="middle" x="241" y="-62.6" font-family="Times,serif" font-size="14.00">PlanesService</text>
</g>
<!-- PlanesModule -->
<g id="node3" class="node">
<title>PlanesModule</title>
<polygon fill="#8dd3c7" stroke="black" points="214.1,-149.8 211.1,-153.8 190.1,-153.8 187.1,-149.8 117.9,-149.8 117.9,-113.8 214.1,-113.8 214.1,-149.8"/>
<text text-anchor="middle" x="166" y="-127.6" font-family="Times,serif" font-size="14.00">PlanesModule</text>
</g>
<!-- PlanesService&#45;&gt;PlanesModule -->
<g id="edge1" class="edge">
<title>PlanesService&#45;&gt;PlanesModule</title>
<path fill="none" stroke="black" d="M194.92,-79.64C194.92,-79.64 194.92,-103.32 194.92,-103.32"/>
<polygon fill="black" stroke="black" points="191.42,-103.32 194.92,-113.32 198.42,-103.32 191.42,-103.32"/>
</g>
<!-- PrismaService -->
<g id="node2" class="node">
<title>PrismaService</title>
<ellipse fill="#fdb462" stroke="black" cx="91" cy="-66.8" rx="66.64" ry="18"/>
<text text-anchor="middle" x="91" y="-62.6" font-family="Times,serif" font-size="14.00">PrismaService</text>
</g>
<!-- PrismaService&#45;&gt;PlanesModule -->
<g id="edge2" class="edge">
<title>PrismaService&#45;&gt;PlanesModule</title>
<path fill="none" stroke="black" d="M137.88,-79.64C137.88,-79.64 137.88,-103.32 137.88,-103.32"/>
<polygon fill="black" stroke="black" points="134.38,-103.32 137.88,-113.32 141.38,-103.32 134.38,-103.32"/>
</g>
</g>
</svg>
