<?xml version="1.0" encoding="UTF-8" standalone="no"?>
<!DOCTYPE svg PUBLIC "-//W3C//DTD SVG 1.1//EN"
 "http://www.w3.org/Graphics/SVG/1.1/DTD/svg11.dtd">
<!-- Generated by graphviz version 3.0.0 (20220226.1711)
 -->
<!-- Title: dependencies Pages: 1 -->
<svg width="388pt" height="174pt"
 viewBox="0.00 0.00 388.00 173.80" xmlns="http://www.w3.org/2000/svg" xmlns:xlink="http://www.w3.org/1999/xlink">
<g id="graph0" class="graph" transform="scale(1 1) rotate(0) translate(4 169.8)">
<title>dependencies</title>
<polygon fill="white" stroke="transparent" points="-4,4 -4,-169.8 384,-169.8 384,4 -4,4"/>
<text text-anchor="middle" x="190" y="-8.2" font-family="sans-serif" font-size="14.00">dependencies</text>
<g id="clust1" class="cluster">
<title>cluster_PlaneTicketsModule</title>
<polygon fill="none" stroke="black" stroke-dasharray="1,5" points="8,-32.8 8,-157.8 372,-157.8 372,-32.8 8,-32.8"/>
</g>
<g id="clust6" class="cluster">
<title>cluster_PlaneTicketsModule_providers</title>
<polygon fill="none" stroke="black" points="16,-40.8 16,-92.8 364,-92.8 364,-40.8 16,-40.8"/>
</g>
<!-- PlaneTicketsService -->
<g id="node1" class="node">
<title>PlaneTicketsService</title>
<ellipse fill="#fdb462" stroke="black" cx="266" cy="-66.8" rx="89.74" ry="18"/>
<text text-anchor="middle" x="266" y="-62.6" font-family="Times,serif" font-size="14.00">PlaneTicketsService</text>
</g>
<!-- PlaneTicketsModule -->
<g id="node3" class="node">
<title>PlaneTicketsModule</title>
<polygon fill="#8dd3c7" stroke="black" points="243.86,-149.8 240.86,-153.8 219.86,-153.8 216.86,-149.8 112.14,-149.8 112.14,-113.8 243.86,-113.8 243.86,-149.8"/>
<text text-anchor="middle" x="178" y="-127.6" font-family="Times,serif" font-size="14.00">PlaneTicketsModule</text>
</g>
<!-- PlaneTicketsService&#45;&gt;PlaneTicketsModule -->
<g id="edge1" class="edge">
<title>PlaneTicketsService&#45;&gt;PlaneTicketsModule</title>
<path fill="none" stroke="black" d="M210.03,-80.9C210.03,-80.9 210.03,-103.52 210.03,-103.52"/>
<polygon fill="black" stroke="black" points="206.53,-103.52 210.03,-113.52 213.53,-103.52 206.53,-103.52"/>
</g>
<!-- PrismaService -->
<g id="node2" class="node">
<title>PrismaService</title>
<ellipse fill="#fdb462" stroke="black" cx="91" cy="-66.8" rx="66.64" ry="18"/>
<text text-anchor="middle" x="91" y="-62.6" font-family="Times,serif" font-size="14.00">PrismaService</text>
</g>
<!-- PrismaService&#45;&gt;PlaneTicketsModule -->
<g id="edge2" class="edge">
<title>PrismaService&#45;&gt;PlaneTicketsModule</title>
<path fill="none" stroke="black" d="M134.94,-80.58C134.94,-80.58 134.94,-103.35 134.94,-103.35"/>
<polygon fill="black" stroke="black" points="131.44,-103.35 134.94,-113.35 138.44,-103.35 131.44,-103.35"/>
</g>
</g>
</svg>
