<?xml version="1.0" encoding="UTF-8" standalone="no"?>
<!DOCTYPE svg PUBLIC "-//W3C//DTD SVG 1.1//EN"
 "http://www.w3.org/Graphics/SVG/1.1/DTD/svg11.dtd">
<!-- Generated by graphviz version 3.0.0 (20220226.1711)
 -->
<!-- Title: dependencies Pages: 1 -->
<svg width="550pt" height="174pt"
 viewBox="0.00 0.00 550.00 173.80" xmlns="http://www.w3.org/2000/svg" xmlns:xlink="http://www.w3.org/1999/xlink">
<g id="graph0" class="graph" transform="scale(1 1) rotate(0) translate(4 169.8)">
<title>dependencies</title>
<polygon fill="white" stroke="transparent" points="-4,4 -4,-169.8 546,-169.8 546,4 -4,4"/>
<text text-anchor="middle" x="271" y="-8.2" font-family="sans-serif" font-size="14.00">dependencies</text>
<g id="clust1" class="cluster">
<title>cluster_AppModule</title>
<polygon fill="none" stroke="black" stroke-dasharray="1,5" points="8,-32.8 8,-157.8 534,-157.8 534,-32.8 8,-32.8"/>
</g>
<g id="clust3" class="cluster">
<title>cluster_AppModule_imports</title>
<polygon fill="none" stroke="black" points="154,-40.8 154,-92.8 526,-92.8 526,-40.8 154,-40.8"/>
</g>
<g id="clust6" class="cluster">
<title>cluster_AppModule_providers</title>
<polygon fill="none" stroke="black" points="16,-40.8 16,-92.8 146,-92.8 146,-40.8 16,-40.8"/>
</g>
<!-- PlaneTicketsModule -->
<g id="node1" class="node">
<title>PlaneTicketsModule</title>
<polygon fill="#8dd3c7" stroke="black" points="517.86,-84.8 514.86,-88.8 493.86,-88.8 490.86,-84.8 386.14,-84.8 386.14,-48.8 517.86,-48.8 517.86,-84.8"/>
<text text-anchor="middle" x="452" y="-62.6" font-family="Times,serif" font-size="14.00">PlaneTicketsModule</text>
</g>
<!-- AppModule -->
<g id="node4" class="node">
<title>AppModule</title>
<polygon fill="#8dd3c7" stroke="black" points="305.66,-149.8 302.66,-153.8 281.66,-153.8 278.66,-149.8 222.34,-149.8 222.34,-113.8 305.66,-113.8 305.66,-149.8"/>
<text text-anchor="middle" x="264" y="-127.6" font-family="Times,serif" font-size="14.00">AppModule</text>
</g>
<!-- PlaneTicketsModule&#45;&gt;AppModule -->
<g id="edge1" class="edge">
<title>PlaneTicketsModule&#45;&gt;AppModule</title>
<path fill="none" stroke="black" d="M452,-84.91C452,-104.14 452,-131.8 452,-131.8 452,-131.8 315.72,-131.8 315.72,-131.8"/>
<polygon fill="black" stroke="black" points="315.72,-128.3 305.72,-131.8 315.72,-135.3 315.72,-128.3"/>
</g>
<!-- PlanesModule -->
<g id="node2" class="node">
<title>PlanesModule</title>
<polygon fill="#8dd3c7" stroke="black" points="368.1,-84.8 365.1,-88.8 344.1,-88.8 341.1,-84.8 271.9,-84.8 271.9,-48.8 368.1,-48.8 368.1,-84.8"/>
<text text-anchor="middle" x="320" y="-62.6" font-family="Times,serif" font-size="14.00">PlanesModule</text>
</g>
<!-- PlanesModule&#45;&gt;AppModule -->
<g id="edge2" class="edge">
<title>PlanesModule&#45;&gt;AppModule</title>
<path fill="none" stroke="black" d="M288.89,-84.91C288.89,-84.91 288.89,-103.79 288.89,-103.79"/>
<polygon fill="black" stroke="black" points="285.39,-103.79 288.89,-113.79 292.39,-103.79 285.39,-103.79"/>
</g>
<!-- UsersModule -->
<g id="node3" class="node">
<title>UsersModule</title>
<polygon fill="#8dd3c7" stroke="black" points="253.94,-84.8 250.94,-88.8 229.94,-88.8 226.94,-84.8 162.06,-84.8 162.06,-48.8 253.94,-48.8 253.94,-84.8"/>
<text text-anchor="middle" x="208" y="-62.6" font-family="Times,serif" font-size="14.00">UsersModule</text>
</g>
<!-- UsersModule&#45;&gt;AppModule -->
<g id="edge3" class="edge">
<title>UsersModule&#45;&gt;AppModule</title>
<path fill="none" stroke="black" d="M237.94,-84.91C237.94,-84.91 237.94,-103.79 237.94,-103.79"/>
<polygon fill="black" stroke="black" points="234.44,-103.79 237.94,-113.79 241.44,-103.79 234.44,-103.79"/>
</g>
<!-- AppService -->
<g id="node5" class="node">
<title>AppService</title>
<ellipse fill="#fdb462" stroke="black" cx="81" cy="-66.8" rx="56.75" ry="18"/>
<text text-anchor="middle" x="81" y="-62.6" font-family="Times,serif" font-size="14.00">AppService</text>
</g>
<!-- AppService&#45;&gt;AppModule -->
<g id="edge4" class="edge">
<title>AppService&#45;&gt;AppModule</title>
<path fill="none" stroke="black" d="M81,-84.91C81,-104.14 81,-131.8 81,-131.8 81,-131.8 212.02,-131.8 212.02,-131.8"/>
<polygon fill="black" stroke="black" points="212.02,-135.3 222.02,-131.8 212.02,-128.3 212.02,-135.3"/>
</g>
</g>
</svg>
