<?xml version="1.0" encoding="UTF-8" standalone="no"?>
<!DOCTYPE svg PUBLIC "-//W3C//DTD SVG 1.1//EN"
 "http://www.w3.org/Graphics/SVG/1.1/DTD/svg11.dtd">
<!-- Generated by graphviz version 3.0.0 (20220226.1711)
 -->
<!-- Title: dependencies Pages: 1 -->
<svg width="733pt" height="250pt"
 viewBox="0.00 0.00 733.00 249.80" xmlns="http://www.w3.org/2000/svg" xmlns:xlink="http://www.w3.org/1999/xlink">
<g id="graph0" class="graph" transform="scale(1 1) rotate(0) translate(4 245.8)">
<title>dependencies</title>
<polygon fill="white" stroke="transparent" points="-4,4 -4,-245.8 729,-245.8 729,4 -4,4"/>
<text text-anchor="middle" x="362.5" y="-8.2" font-family="sans-serif" font-size="14.00">dependencies</text>
<g id="clust1" class="cluster">
<title>cluster_AppModule</title>
<polygon fill="none" stroke="black" stroke-dasharray="1,5" points="8,-108.8 8,-233.8 534,-233.8 534,-108.8 8,-108.8"/>
</g>
<g id="clust3" class="cluster">
<title>cluster_AppModule_imports</title>
<polygon fill="none" stroke="black" points="154,-116.8 154,-168.8 526,-168.8 526,-116.8 154,-116.8"/>
</g>
<g id="clust6" class="cluster">
<title>cluster_AppModule_providers</title>
<polygon fill="none" stroke="black" points="16,-116.8 16,-168.8 146,-168.8 146,-116.8 16,-116.8"/>
</g>
<g id="clust7" class="cluster">
<title>cluster_PlanesModule</title>
<polygon fill="none" stroke="black" stroke-dasharray="1,5" points="19,-32.8 19,-100.8 333,-100.8 333,-32.8 19,-32.8"/>
</g>
<g id="clust12" class="cluster">
<title>cluster_PlanesModule_providers</title>
<polygon fill="none" stroke="black" points="27,-40.8 27,-92.8 325,-92.8 325,-40.8 27,-40.8"/>
</g>
<g id="clust13" class="cluster">
<title>cluster_PlaneTicketsModule</title>
<polygon fill="none" stroke="black" stroke-dasharray="1,5" points="341,-32.8 341,-100.8 553,-100.8 553,-32.8 341,-32.8"/>
</g>
<g id="clust18" class="cluster">
<title>cluster_PlaneTicketsModule_providers</title>
<polygon fill="none" stroke="black" points="349,-40.8 349,-92.8 545,-92.8 545,-40.8 349,-40.8"/>
</g>
<g id="clust19" class="cluster">
<title>cluster_UsersModule</title>
<polygon fill="none" stroke="black" stroke-dasharray="1,5" points="561,-32.8 561,-100.8 717,-100.8 717,-32.8 561,-32.8"/>
</g>
<g id="clust24" class="cluster">
<title>cluster_UsersModule_providers</title>
<polygon fill="none" stroke="black" points="569,-40.8 569,-92.8 709,-92.8 709,-40.8 569,-40.8"/>
</g>
<!-- PlaneTicketsModule -->
<g id="node1" class="node">
<title>PlaneTicketsModule</title>
<polygon fill="#8dd3c7" stroke="black" points="407.86,-160.8 404.86,-164.8 383.86,-164.8 380.86,-160.8 276.14,-160.8 276.14,-124.8 407.86,-124.8 407.86,-160.8"/>
<text text-anchor="middle" x="342" y="-138.6" font-family="Times,serif" font-size="14.00">PlaneTicketsModule</text>
</g>
<!-- AppModule -->
<g id="node4" class="node">
<title>AppModule</title>
<polygon fill="#8dd3c7" stroke="black" points="317.66,-225.8 314.66,-229.8 293.66,-229.8 290.66,-225.8 234.34,-225.8 234.34,-189.8 317.66,-189.8 317.66,-225.8"/>
<text text-anchor="middle" x="276" y="-203.6" font-family="Times,serif" font-size="14.00">AppModule</text>
</g>
<!-- PlaneTicketsModule&#45;&gt;AppModule -->
<g id="edge1" class="edge">
<title>PlaneTicketsModule&#45;&gt;AppModule</title>
<path fill="none" stroke="black" d="M296.95,-160.91C296.95,-160.91 296.95,-179.79 296.95,-179.79"/>
<polygon fill="black" stroke="black" points="293.45,-179.79 296.95,-189.79 300.45,-179.79 293.45,-179.79"/>
</g>
<!-- PlanesModule -->
<g id="node2" class="node">
<title>PlanesModule</title>
<polygon fill="#8dd3c7" stroke="black" points="258.1,-160.8 255.1,-164.8 234.1,-164.8 231.1,-160.8 161.9,-160.8 161.9,-124.8 258.1,-124.8 258.1,-160.8"/>
<text text-anchor="middle" x="210" y="-138.6" font-family="Times,serif" font-size="14.00">PlanesModule</text>
</g>
<!-- PlanesModule&#45;&gt;AppModule -->
<g id="edge2" class="edge">
<title>PlanesModule&#45;&gt;AppModule</title>
<path fill="none" stroke="black" d="M246.11,-160.91C246.11,-160.91 246.11,-179.79 246.11,-179.79"/>
<polygon fill="black" stroke="black" points="242.61,-179.79 246.11,-189.79 249.61,-179.79 242.61,-179.79"/>
</g>
<!-- UsersModule -->
<g id="node3" class="node">
<title>UsersModule</title>
<polygon fill="#8dd3c7" stroke="black" points="517.94,-160.8 514.94,-164.8 493.94,-164.8 490.94,-160.8 426.06,-160.8 426.06,-124.8 517.94,-124.8 517.94,-160.8"/>
<text text-anchor="middle" x="472" y="-138.6" font-family="Times,serif" font-size="14.00">UsersModule</text>
</g>
<!-- UsersModule&#45;&gt;AppModule -->
<g id="edge3" class="edge">
<title>UsersModule&#45;&gt;AppModule</title>
<path fill="none" stroke="black" d="M472,-160.91C472,-180.14 472,-207.8 472,-207.8 472,-207.8 328.05,-207.8 328.05,-207.8"/>
<polygon fill="black" stroke="black" points="328.05,-204.3 318.05,-207.8 328.05,-211.3 328.05,-204.3"/>
</g>
<!-- AppService -->
<g id="node5" class="node">
<title>AppService</title>
<ellipse fill="#fdb462" stroke="black" cx="81" cy="-142.8" rx="56.75" ry="18"/>
<text text-anchor="middle" x="81" y="-138.6" font-family="Times,serif" font-size="14.00">AppService</text>
</g>
<!-- AppService&#45;&gt;AppModule -->
<g id="edge4" class="edge">
<title>AppService&#45;&gt;AppModule</title>
<path fill="none" stroke="black" d="M81,-160.91C81,-180.14 81,-207.8 81,-207.8 81,-207.8 224.17,-207.8 224.17,-207.8"/>
<polygon fill="black" stroke="black" points="224.17,-211.3 234.17,-207.8 224.17,-204.3 224.17,-211.3"/>
</g>
<!-- PlanesService -->
<g id="node6" class="node">
<title>PlanesService</title>
<ellipse fill="#fdb462" stroke="black" cx="100" cy="-66.8" rx="65.41" ry="18"/>
<text text-anchor="middle" x="100" y="-62.6" font-family="Times,serif" font-size="14.00">PlanesService</text>
</g>
<!-- PlanesService&#45;&gt;PlanesModule -->
<g id="edge5" class="edge">
<title>PlanesService&#45;&gt;PlanesModule</title>
<path fill="none" stroke="black" d="M165.39,-66.8C170.77,-66.8 174.19,-66.8 174.19,-66.8 174.19,-66.8 174.19,-114.79 174.19,-114.79"/>
<polygon fill="black" stroke="black" points="170.69,-114.79 174.19,-124.79 177.69,-114.79 170.69,-114.79"/>
</g>
<!-- PrismaService -->
<g id="node7" class="node">
<title>PrismaService</title>
<ellipse fill="#fdb462" stroke="black" cx="250" cy="-66.8" rx="66.64" ry="18"/>
<text text-anchor="middle" x="250" y="-62.6" font-family="Times,serif" font-size="14.00">PrismaService</text>
</g>
<!-- PrismaService&#45;&gt;PlaneTicketsModule -->
<g id="edge8" class="edge">
<title>PrismaService&#45;&gt;PlaneTicketsModule</title>
<path fill="none" stroke="black" d="M289.65,-81.45C289.65,-81.45 289.65,-114.7 289.65,-114.7"/>
<polygon fill="black" stroke="black" points="286.15,-114.7 289.65,-124.7 293.15,-114.7 286.15,-114.7"/>
</g>
<!-- PrismaService&#45;&gt;PlanesModule -->
<g id="edge6" class="edge">
<title>PrismaService&#45;&gt;PlanesModule</title>
<path fill="none" stroke="black" d="M220.62,-83.29C220.62,-83.29 220.62,-114.75 220.62,-114.75"/>
<polygon fill="black" stroke="black" points="217.12,-114.75 220.62,-124.75 224.12,-114.75 217.12,-114.75"/>
</g>
<!-- PrismaService&#45;&gt;UsersModule -->
<g id="edge9" class="edge">
<title>PrismaService&#45;&gt;UsersModule</title>
<path fill="none" stroke="black" d="M303.24,-78C303.24,-89.2 303.24,-104.8 303.24,-104.8 303.24,-104.8 472,-104.8 472,-104.8 472,-104.8 472,-114.69 472,-114.69"/>
<polygon fill="black" stroke="black" points="468.5,-114.69 472,-124.69 475.5,-114.69 468.5,-114.69"/>
</g>
<!-- PlaneTicketsService -->
<g id="node8" class="node">
<title>PlaneTicketsService</title>
<ellipse fill="#fdb462" stroke="black" cx="447" cy="-66.8" rx="89.74" ry="18"/>
<text text-anchor="middle" x="447" y="-62.6" font-family="Times,serif" font-size="14.00">PlaneTicketsService</text>
</g>
<!-- PlaneTicketsService&#45;&gt;PlaneTicketsModule -->
<g id="edge7" class="edge">
<title>PlaneTicketsService&#45;&gt;PlaneTicketsModule</title>
<path fill="none" stroke="black" d="M382.53,-79.35C382.53,-79.35 382.53,-114.54 382.53,-114.54"/>
<polygon fill="black" stroke="black" points="379.03,-114.54 382.53,-124.54 386.03,-114.54 379.03,-114.54"/>
</g>
<!-- UsersService -->
<g id="node9" class="node">
<title>UsersService</title>
<ellipse fill="#fdb462" stroke="black" cx="639" cy="-66.8" rx="61.97" ry="18"/>
<text text-anchor="middle" x="639" y="-62.6" font-family="Times,serif" font-size="14.00">UsersService</text>
</g>
<!-- UsersService&#45;&gt;UsersModule -->
<g id="edge10" class="edge">
<title>UsersService&#45;&gt;UsersModule</title>
<path fill="none" stroke="black" d="M639,-84.81C639,-107.29 639,-142.8 639,-142.8 639,-142.8 528.08,-142.8 528.08,-142.8"/>
<polygon fill="black" stroke="black" points="528.08,-139.3 518.08,-142.8 528.08,-146.3 528.08,-139.3"/>
</g>
</g>
</svg>
